HIERARCHY
ROOT reference
{
  OFFSET 0 0 0
  CHANNELS 6 Xposition Yposition Zposition Zrotation Xrotation Yrotation
  JOINT Hips
  {
    OFFSET 366.965 89.8555 201.872
    CHANNELS 3 Zrotation Xrotation Yrotation
    JOINT RightUpLeg
    {
      OFFSET -9.27238 -1.56811 0.0123499
      CHANNELS 3 Zrotation Xrotation Yrotation
      JOINT RightLeg
      {
        OFFSET 0.00682797 -41.8882 0.0419786
        CHANNELS 3 Zrotation Xrotation Yrotation
        JOINT RightFoot
        {
          OFFSET 0.530869 -42.1265 0.242224
          CHANNELS 3 Zrotation Xrotation Yrotation
          End Site
          {
            OFFSET 0 -7.69 17.5
          }
        }
      }
    }
    JOINT LeftUpLeg
    {
      OFFSET 9.28391 -1.61639 -0.0258413
      CHANNELS 3 Zrotation Xrotation Yrotation
      JOINT LeftLeg
      {
        OFFSET 0.0291166 -41.8727 -0.014263
        CHANNELS 3 Zrotation Xrotation Yrotation
        JOINT LeftFoot
        {
          OFFSET -0.125672 -41.4933 -0.195947
          CHANNELS 3 Zrotation Xrotation Yrotation
          End Site
          {
            OFFSET 0 -7.69 17.5
          }
        }
      }
    }
    JOINT Spine
    {
      OFFSET 0.0325614 14.2957 0.0242834
      CHANNELS 3 Zrotation Xrotation Yrotation
      JOINT Spine1
      {
        OFFSET 0.00746153 9.71731 0.0172653
        CHANNELS 3 Zrotation Xrotation Yrotation
        JOINT Spine2
        {
          OFFSET 0.0283815 10.1155 -0.00252583
          CHANNELS 3 Zrotation Xrotation Yrotation
          JOINT Spine3
          {
            OFFSET 0.0279172 9.71841 -0.00465252
            CHANNELS 3 Zrotation Xrotation Yrotation
            JOINT Neck
            {
              OFFSET 0.0182001 10.3765 0.0184284
              CHANNELS 3 Zrotation Xrotation Yrotation
              JOINT Head
              {
                OFFSET 0.0113688 9.47343 0.00632939
                CHANNELS 3 Zrotation Xrotation Yrotation
                End Site
                {
                  OFFSET 0 15.95 0
                }
              }
            }
            JOINT RightShoulder
            {
              OFFSET -3.17351 6.93492 0.00767284
              CHANNELS 3 Zrotation Xrotation Yrotation
              JOINT RightArm
              {
                OFFSET -12.7835 -0.0133269 0.0174019
                CHANNELS 3 Zrotation Xrotation Yrotation
                JOINT RightForeArm
                {
                  OFFSET -26.5112 -0.0170228 0.0247955
                  CHANNELS 3 Zrotation Xrotation Yrotation
                  JOINT RightHand
                  {
                    OFFSET -25.9918 -0.0199622 0.0218897
                    CHANNELS 3 Zrotation Xrotation Yrotation
                    JOINT RightHandThumb1
                    {
                      OFFSET -2.48905 0.190105 3.12053
                      CHANNELS 3 Zrotation Xrotation Yrotation
                      JOINT RightHandThumb2
                      {
                        OFFSET -3.68274 0 0
                        CHANNELS 3 Zrotation Xrotation Yrotation
                        JOINT RightHandThumb3
                        {
                          OFFSET -2.55832 0 0
                          CHANNELS 3 Zrotation Xrotation Yrotation
                          End Site
                          {
                            OFFSET -2.194 0 0
                          }
                        }
                      }
                    }
                    JOINT RightInHandIndex
                    {
                      OFFSET -3.22368 0.508421 1.97842
                      CHANNELS 3 Zrotation Xrotation Yrotation
                      JOINT RightHandIndex1
                      {
                        OFFSET -5.21684 -0.091368 0.999158
                        CHANNELS 3 Zrotation Xrotation Yrotation
                        JOINT RightHandIndex2
                        {
                          OFFSET -3.61937 0 0
                          CHANNELS 3 Zrotation Xrotation Yrotation
                          JOINT RightHandIndex3
                          {
                            OFFSET -2.0521 0 0
                            CHANNELS 3 Zrotation Xrotation Yrotation
                            End Site
                            {
                              OFFSET -1.805 0 0
                            }
                          }
                        }
                      }
                    }
                    JOINT RightInHandMiddle
                    {
                      OFFSET -3.38211 0.517263 0.756737
                      CHANNELS 3 Zrotation Xrotation Yrotation
                      JOINT RightHandMiddle1
                      {
                        OFFSET -5.17411 -0.084 0.313895
                        CHANNELS 3 Zrotation Xrotation Yrotation
                        JOINT RightHandMiddle2
                        {
                          OFFSET -3.94947 0 0
                          CHANNELS 3 Zrotation Xrotation Yrotation
                          JOINT RightHandMiddle3
                          {
                            OFFSET -2.47579 0 0
                            CHANNELS 3 Zrotation Xrotation Yrotation
                            End Site
                            {
                              OFFSET -1.975 0 0
                            }
                          }
                        }
                      }
                    }
                    JOINT RightInHandRing
                    {
                      OFFSET -3.36516 0.537895 -0.128947
                      CHANNELS 3 Zrotation Xrotation Yrotation
                      JOINT RightHandRing1
                      {
                        OFFSET -4.63474 -0.022105 -0.478947
                        CHANNELS 3 Zrotation Xrotation Yrotation
                        JOINT RightHandRing2
                        {
                          OFFSET -3.44238 0 0
                          CHANNELS 3 Zrotation Xrotation Yrotation
                          JOINT RightHandRing3
                          {
                            OFFSET -2.3881 0 0
                            CHANNELS 3 Zrotation Xrotation Yrotation
                            End Site
                            {
                              OFFSET -1.857 0 0
                            }
                          }
                        }
                      }
                    }
                    JOINT RightInHandPinky
                    {
                      OFFSET -3.16105 0.469368 -1.20179
                      CHANNELS 3 Zrotation Xrotation Yrotation
                      JOINT RightHandPinky1
                      {
                        OFFSET -4.14105 -0.022105 -1.09053
                        CHANNELS 3 Zrotation Xrotation Yrotation
                        JOINT RightHandPinky2
                        {
                          OFFSET -2.75653 0 0
                          CHANNELS 3 Zrotation Xrotation Yrotation
                          JOINT RightHandPinky3
                          {
                            OFFSET -1.74189 0 0
                            CHANNELS 3 Zrotation Xrotation Yrotation
                            End Site
                            {
                              OFFSET -1.645 0 0
                            }
                          }
                        }
                      }
                    }
                  }
                }
              }
            }
            JOINT LeftShoulder
            {
              OFFSET 3.23633 6.91116 -0.0162332
              CHANNELS 3 Zrotation Xrotation Yrotation
              JOINT LeftArm
              {
                OFFSET 12.8112 -0.0136289 -0.0286256
                CHANNELS 3 Zrotation Xrotation Yrotation
                JOINT LeftForeArm
                {
                  OFFSET 26.502 -0.0235899 -0.00806802
                  CHANNELS 3 Zrotation Xrotation Yrotation
                  JOINT LeftHand
                  {
                    OFFSET 25.9974 -0.0321613 -0.027004
                    CHANNELS 3 Zrotation Xrotation Yrotation
                    JOINT LeftHandThumb1
                    {
                      OFFSET 2.48905 0.190105 3.12053
                      CHANNELS 3 Zrotation Xrotation Yrotation
                      JOINT LeftHandThumb2
                      {
                        OFFSET 3.68274 0 0
                        CHANNELS 3 Zrotation Xrotation Yrotation
                        JOINT LeftHandThumb3
                        {
                          OFFSET 2.55832 0 0
                          CHANNELS 3 Zrotation Xrotation Yrotation
                          End Site
                          {
                            OFFSET 2.194 0 0
                          }
                        }
                      }
                    }
                    JOINT LeftInHandIndex
                    {
                      OFFSET 3.22368 0.508421 1.97842
                      CHANNELS 3 Zrotation Xrotation Yrotation
                      JOINT LeftHandIndex1
                      {
                        OFFSET 5.21684 -0.091368 0.999158
                        CHANNELS 3 Zrotation Xrotation Yrotation
                        JOINT LeftHandIndex2
                        {
                          OFFSET 3.61937 0 0
                          CHANNELS 3 Zrotation Xrotation Yrotation
                          JOINT LeftHandIndex3
                          {
                            OFFSET 2.0521 0 0
                            CHANNELS 3 Zrotation Xrotation Yrotation
                            End Site
                            {
                              OFFSET 1.805 0 0
                            }
                          }
                        }
                      }
                    }
                    JOINT LeftInHandMiddle
                    {
                      OFFSET 3.38211 0.517263 0.756737
                      CHANNELS 3 Zrotation Xrotation Yrotation
                      JOINT LeftHandMiddle1
                      {
                        OFFSET 5.17411 -0.084 0.313895
                        CHANNELS 3 Zrotation Xrotation Yrotation
                        JOINT LeftHandMiddle2
                        {
                          OFFSET 3.94947 0 0
                          CHANNELS 3 Zrotation Xrotation Yrotation
                          JOINT LeftHandMiddle3
                          {
                            OFFSET 2.47579 0 0
                            CHANNELS 3 Zrotation Xrotation Yrotation
                            End Site
                            {
                              OFFSET 1.975 0 0
                            }
                          }
                        }
                      }
                    }
                    JOINT LeftInHandRing
                    {
                      OFFSET 3.36516 0.537895 -0.128947
                      CHANNELS 3 Zrotation Xrotation Yrotation
                      JOINT LeftHandRing1
                      {
                        OFFSET 4.63474 -0.022105 -0.478947
                        CHANNELS 3 Zrotation Xrotation Yrotation
                        JOINT LeftHandRing2
                        {
                          OFFSET 3.44238 0 0
                          CHANNELS 3 Zrotation Xrotation Yrotation
                          JOINT LeftHandRing3
                          {
                            OFFSET 2.3881 0 0
                            CHANNELS 3 Zrotation Xrotation Yrotation
                            End Site
                            {
                              OFFSET 1.857 0 0
                            }
                          }
                        }
                      }
                    }
                    JOINT LeftInHandPinky
                    {
                      OFFSET 3.16105 0.469368 -1.20179
                      CHANNELS 3 Zrotation Xrotation Yrotation
                      JOINT LeftHandPinky1
                      {
                        OFFSET 4.14105 -0.022105 -1.09053
                        CHANNELS 3 Zrotation Xrotation Yrotation
                        JOINT LeftHandPinky2
                        {
                          OFFSET 2.75653 0 0
                          CHANNELS 3 Zrotation Xrotation Yrotation
                          JOINT LeftHandPinky3
                          {
                            OFFSET 1.74189 0 0
                            CHANNELS 3 Zrotation Xrotation Yrotation
                            End Site
                            {
                              OFFSET 1.645 0 0
                            }
                          }
                        }
                      }
                    }
                  }
                }
              }
            }
          }
        }
      }
    }
  }
}
MOTION
Frames: 2
Frame Time: 0.00833333
1.050000000000000000e+03 0.000000000000000000e+00 0.000000000000000000e+00 0.000000000000000000e+00 0.000000000000000000e+00 0.000000000000000000e+00 2.262000862936227108e+01 3.697616574545209644e+00 -1.004648987524649613e+02 1.860462892384045119e+01 -4.630207079363381695e+01 1.555180260312265617e+01 -7.711819246587824139e+00 1.905202384181679776e+01 -2.986546592750367601e+00 2.268481418889041201e+00 1.324939868661762787e+01 4.526263283560230377e+01 2.528729437345221953e+01 -2.827176584581487973e+01 1.366565726057547003e+01 -1.174884385961404654e+01 3.683797522334794650e+01 1.722787109140653783e+01 -1.065884122611269902e+01 -2.458609720130042575e+01 -9.663873053777136235e+00 -7.921001594913688493e+00 4.962486991588211716e+00 5.519201210397273627e+00 -1.860482266355698577e+00 8.942513163243064334e-01 1.311389338969902507e+00 -3.056595611638324606e+00 1.279354550872448204e+00 2.048272628754382652e+00 -6.919408323771982783e-01 -6.483906443492306604e-01 1.322079787477424606e+00 -5.160008036722850688e-01 -3.062086288856600280e+00 1.193253957602195214e+01 -1.233534087840408233e+01 -5.590673854836497370e+00 1.748188295391222979e+01 1.219100110680226279e-01 -2.118273961653277304e+00 1.636945504975878762e+01 5.094615566254597638e+01 -3.596915377442032025e+01 2.189344673491806148e+01 4.407273374039507274e+01 -3.207650289090755535e+01 8.703350533241479070e+01 1.234303150134287108e+01 -2.304149761559333953e+01 -8.665911752037143145e+00 2.818400000000000105e+01 1.072940000000000005e+01 1.915919999999999845e+01 1.946897360726142977e-14 5.828312068778701185e-15 -1.000000000000000000e+01 7.013777830653455048e-15 6.434810425919664352e-15 -1.000000000000000000e+01 -8.343179782374688713e-16 -4.668219085765011394e-15 5.112713962161685051e-15 1.998179999999999978e+01 8.718970000000000331e-01 2.396399999999999864e+00 2.400000000000000000e+01 -1.305444878956240069e-15 3.472808700823162904e-16 2.000000000000000000e+01 3.723537627439273279e-15 9.060528470004943799e-15 -8.343179782374688713e-16 -4.668219085765011394e-15 5.112713962161685051e-15 2.000000000000000000e+01 -3.890763319898995367e-16 -5.620943992412467061e-15 2.400000000000000000e+01 8.322391000685024472e-15 -1.326845605575585119e-15 2.000000000000000000e+01 2.626079948016808689e-15 6.652723706453633872e-15 -8.343179782374688713e-16 -4.668219085765011394e-15 5.112713962161685051e-15 1.997479999999999833e+01 -1.025649999999999951e+00 -2.819380000000000219e+00 2.400000000000000000e+01 -5.010499780706930706e-16 -8.740205879908324930e-15 2.000000000000000000e+01 -2.380616193798114710e-15 1.286282768564040638e-14 -8.343179782374688713e-16 -4.668219085765011394e-15 5.112713962161685051e-15 1.978150000000000119e+01 -3.009479999999999933e+00 -8.305149999999999366e+00 2.400000000000000000e+01 2.179009506858990138e-15 -7.035226303679194023e-15 2.000000000000000000e+01 8.825363307151987002e-15 -8.600277612596150538e-15 1.004618267548968902e+01 -1.437224090546922994e+01 -4.225275520951581143e+01 -1.388311600277579672e+01 2.525185897050520012e+01 -9.311804104302218832e+01 3.506256523940209036e+01 -3.081496839615313732e+01 -6.270187122806731850e-01 -2.704352458307271689e+01 -1.814791005958784709e+01 3.422232708308534654e-01 -2.818400000000000105e+01 1.072940000000000005e+01 -1.915919999999999845e+01 -3.939464592677767323e-15 6.996642605428343146e-15 1.000000000000000000e+01 7.681258910031369942e-16 1.564290500647412359e-15 1.000000000000000000e+01 7.328996369650669944e-15 -5.192733982169329965e-16 -2.954029468279681816e-15 -1.998179999999999978e+01 8.718970000000000331e-01 -2.396399999999999864e+00 -2.400000000000000000e+01 1.514772697547071988e-16 4.172234583287250760e-16 -2.000000000000000000e+01 -1.969285459423808231e-15 2.867469536200143118e-15 7.328996369650669944e-15 -5.192733982169329965e-16 -2.954029468279681816e-15 -2.000000000000000000e+01 4.477446986283527144e-15 8.650070132089846895e-15 -2.400000000000000000e+01 7.336720275105576192e-15 7.024282436899671900e-15 -2.000000000000000000e+01 6.442229431539809812e-16 -1.313786787526732309e-15 7.328996369650669944e-15 -5.192733982169329965e-16 -2.954029468279681816e-15 -1.997479999999999833e+01 -1.025649999999999951e+00 2.819380000000000219e+00 -2.400000000000000000e+01 -3.370643087601533416e-16 1.959997590616803970e-17 -2.000000000000000000e+01 4.634610433545649830e-16 -9.240026244376163543e-15 7.328996369650669944e-15 -5.192733982169329965e-16 -2.954029468279681816e-15 -1.978150000000000119e+01 -3.009479999999999933e+00 8.305149999999999366e+00 -2.400000000000000000e+01 3.339142910032368866e-15 7.100754476736033617e-15 -2.000000000000000000e+01 4.442038280530590418e-16 -1.057770693582422024e-14
1.050000000000000000e+03 0.000000000000000000e+00 0.000000000000000000e+00 0.000000000000000000e+00 0.000000000000000000e+00 0.000000000000000000e+00 2.271301154140191869e+01 3.702120916119356675e+00 -1.008865769869856734e+02 1.865484222502929867e+01 -4.644558490285395180e+01 1.560771099720815691e+01 -7.714620416766395650e+00 1.908462274222942412e+01 -2.963116189560182967e+00 2.325330259780778341e+00 1.310167573690388920e+01 4.530015672194829790e+01 2.539884852567067597e+01 -2.832100273334342688e+01 1.376411286008903367e+01 -1.182145568796535429e+01 3.692362573339638487e+01 1.733783646817017043e+01 -1.059183900658499766e+01 -2.464318483954816230e+01 -9.470728536816528376e+00 -7.914673185725630944e+00 4.992332817349342200e+00 5.344677053199079708e+00 -1.857721382224369222e+00 9.047003304640881538e-01 1.267509629349846678e+00 -3.053396586842904270e+00 1.298546630347291231e+00 1.980473179812215712e+00 -6.945567234748950547e-01 -6.473078740178677126e-01 1.336566711193009294e+00 -5.239015480839468442e-01 -3.059099539252983391e+00 1.213298292950051405e+01 -1.237515441757618362e+01 -5.588981346263094174e+00 1.764752297155968819e+01 1.622365578637612882e-01 -2.102735699394270519e+00 1.628282633519345879e+01 5.101921435854293918e+01 -3.614585275045288171e+01 2.160714541205897987e+01 4.422044201208879599e+01 -3.199378170109207886e+01 8.718818850619061323e+01 1.227629786670607537e+01 -2.310669538236875908e+01 -8.661951232617063567e+00 2.818400000000000105e+01 1.072940000000000005e+01 1.915919999999999845e+01 1.946385243706605007e-14 5.830145685307865858e-15 -1.000000000000000000e+01 7.016513171736386508e-15 6.416781236412708564e-15 -1.000000000000000000e+01 -8.505419066112898773e-16 -4.652254308275523858e-15 5.102160689900781745e-15 1.998179999999999978e+01 8.718970000000000331e-01 2.396399999999999864e+00 2.400000000000000000e+01 -1.313892892235740678e-15 3.624452639661467713e-16 2.000000000000000000e+01 3.707012763952643335e-15 9.055025262593631876e-15 -8.505419066112898773e-16 -4.652254308275523858e-15 5.102160689900781745e-15 2.000000000000000000e+01 -3.765948670655809881e-16 -5.607923337174821684e-15 2.400000000000000000e+01 8.309506281730431362e-15 -1.292834953622673355e-15 2.000000000000000000e+01 2.625558830275749311e-15 6.673005082780301641e-15 -8.505419066112898773e-16 -4.652254308275523858e-15 5.102160689900781745e-15 1.997479999999999833e+01 -1.025649999999999951e+00 -2.819380000000000219e+00 2.400000000000000000e+01 -4.877465168648185899e-16 -8.713667436512463999e-15 2.000000000000000000e+01 -2.378168046133104130e-15 1.287902773234179608e-14 -8.505419066112898773e-16 -4.652254308275523858e-15 5.102160689900781745e-15 1.978150000000000119e+01 -3.009479999999999933e+00 -8.305149999999999366e+00 2.400000000000000000e+01 2.188112089215830835e-15 -6.943131735648290783e-15 2.000000000000000000e+01 8.820563646784386832e-15 -8.556785042241991658e-15 1.007437087354146144e+01 -1.444188854353127915e+01 -4.234620108314781106e+01 -1.384291180323430837e+01 2.545199747480240404e+01 -9.336127699299620986e+01 3.510852941204741740e+01 -3.069334322733002907e+01 -3.805388673565701652e-01 -2.707332318155887307e+01 -1.818956243166213582e+01 3.485069007533052599e-01 -2.818400000000000105e+01 1.072940000000000005e+01 -1.915919999999999845e+01 -3.948349000536754900e-15 7.005161756377382005e-15 1.000000000000000000e+01 7.635907920723064428e-16 1.560263511896855287e-15 1.000000000000000000e+01 7.329089465201744312e-15 -5.245938437462846710e-16 -2.950541875743199738e-15 -1.998179999999999978e+01 8.718970000000000331e-01 -2.396399999999999864e+00 -2.400000000000000000e+01 1.598918882190924455e-16 4.043807021072709206e-16 -2.000000000000000000e+01 -1.971984179007727548e-15 2.852433333092150824e-15 7.329089465201744312e-15 -5.245938437462846710e-16 -2.950541875743199738e-15 -2.000000000000000000e+01 4.477943450980775496e-15 8.652591273309095008e-15 -2.400000000000000000e+01 7.352321402922319515e-15 7.018422464894874535e-15 -2.000000000000000000e+01 6.319064916925443490e-16 -1.305368326046991236e-15 7.329089465201744312e-15 -5.245938437462846710e-16 -2.950541875743199738e-15 -1.997479999999999833e+01 -1.025649999999999951e+00 2.819380000000000219e+00 -2.400000000000000000e+01 -3.304672361232668611e-16 1.188694818175098795e-17 -2.000000000000000000e+01 4.661552097359465025e-16 -9.236392705862444763e-15 7.329089465201744312e-15 -5.245938437462846710e-16 -2.950541875743199738e-15 -1.978150000000000119e+01 -3.009479999999999933e+00 8.305149999999999366e+00 -2.400000000000000000e+01 3.336107155961895384e-15 7.106896919481511049e-15 -2.000000000000000000e+01 4.429976379004689180e-16 -1.056922740954651349e-14
